<?xml version="1.0" encoding="utf-8"?>
<!-- Generator: Adobe Illustrator 16.0.0, SVG Export Plug-In . SVG Version: 6.00 Build 0)  -->
<!DOCTYPE svg PUBLIC "-//W3C//DTD SVG 1.1//EN" "http://www.w3.org/Graphics/SVG/1.1/DTD/svg11.dtd">
<svg version="1.1" xmlns="http://www.w3.org/2000/svg" xmlns:xlink="http://www.w3.org/1999/xlink" x="0px" y="0px"
	 width="38.891px" height="22.202px" viewBox="0 0 38.891 22.202" enable-background="new 0 0 38.891 22.202" xml:space="preserve">
<g id="画板的参考线">
</g>
<g id="Layer_1">
	<rect x="-852.426" y="-1459.125" fill="#FFFFFF" stroke="#000000" stroke-miterlimit="10" width="1216.439" height="1799.389"/>
	<g>
		<path fill="#898989" d="M20.257,0.809c0,0.193-0.068,0.388-0.209,0.543L1.408,21.936c-0.3,0.332-0.812,0.358-1.143,0.057
			c-0.332-0.298-0.356-0.81-0.056-1.141L18.849,0.267c0.301-0.332,0.812-0.357,1.143-0.057C20.168,0.369,20.257,0.589,20.257,0.809z
			"/>
		<path fill="#898989" d="M38.891,21.393c0,0.221-0.091,0.44-0.267,0.6c-0.331,0.302-0.843,0.274-1.142-0.057L18.849,1.352
			c-0.302-0.332-0.274-0.843,0.057-1.142c0.331-0.301,0.843-0.274,1.143,0.057l18.633,20.585
			C38.821,21.006,38.891,21.2,38.891,21.393z"/>
	</g>
</g>
</svg>
